<svg xmlns="http://www.w3.org/2000/svg" viewBox="0 0 247.62 97"><defs><style>.cls-1{fill:#4d4d4d;}.cls-2{fill:#ff1f65;}</style></defs><title>Asset 2</title><g id="Layer_2" data-name="Layer 2"><g id="Layer_1-2" data-name="Layer 1"><polygon class="cls-1" points="45.15 97 0 0 90.81 0 45.15 97"/><path class="cls-1" d="M107,60.85a32.56,32.56,0,0,0,.39,5.39h-2.72a18.29,18.29,0,0,1-.51-4.37c-1,2.1-3.47,5.06-9.31,5.06-6.59,0-9.43-4.26-9.43-8.52,0-6.25,4.83-9.09,13.34-9.09h5.4V46.43c0-2.84-.85-6.64-7.33-6.64-5.73,0-6.58,3-7.21,5.33H86.82c.34-3.12,2.27-7.95,10.11-7.95,6.47,0,10.11,2.73,10.11,9Zm-2.79-9.08H98.69c-6.3,0-10.22,1.64-10.22,6.53,0,3.57,2.55,6,6.53,6,8.12,0,9.25-5.39,9.25-11.52Z"/><path class="cls-1" d="M137.3,58c0,2.78.06,7.21.06,8.28h-2.73a46.41,46.41,0,0,1-.17-4.93c-1.19,3.34-4.09,5.62-9.14,5.62-4.09,0-9.31-1.59-9.31-10.28V37.86h2.78V56c0,4.14,1.31,8.17,6.93,8.17,6.36,0,8.74-3.57,8.74-11.69V37.86h2.84Z"/><path class="cls-1" d="M146.61,66.24V24.4h2.84V66.24Z"/><path class="cls-1" d="M154.9,37.86h5.28V29H163v8.86h6.76v2.66H163V59c0,3.18.68,5,3.41,5a10.5,10.5,0,0,0,2.95-.34v2.5a9.9,9.9,0,0,1-3.52.51c-3.63,0-5.68-1.81-5.68-6.36V40.52H154.9Z"/><path class="cls-2" d="M175.4,24.4h2.84V42.62c1.36-2.83,4.14-5.45,9.71-5.45,6.7,0,11.64,5.51,11.64,14.26,0,9-4.43,15.5-12.38,15.5-4.77,0-7.5-1.93-9-5.17,0,1.82-.06,3.69-.12,4.48h-2.78c.06-3.23.06-6.47.06-9.7Zm21.18,27.08c0-7.09-3.52-11.64-8.92-11.64-7.09,0-9.59,4.83-9.59,12.27,0,6.7,2.21,12.15,9.25,12.15C193.06,64.26,196.58,59.49,196.58,51.48Z"/><path class="cls-2" d="M230,52c0,7.9-4.37,14.94-12.83,14.94-7.66,0-12.43-6.31-12.43-14.88,0-8.12,4.48-14.88,12.72-14.88C225,37.17,230,43.08,230,52Zm-22.25.06c0,6.76,3.63,12.21,9.65,12.21S227,59.2,227,52.05c0-6.7-3.4-12.21-9.7-12.21C210.77,39.84,207.71,45.24,207.71,52.05Z"/><path class="cls-2" d="M232.75,37.86H238V29h2.84v8.86h6.75v2.66h-6.75V59c0,3.18.68,5,3.4,5a10.46,10.46,0,0,0,2.95-.34v2.5a9.87,9.87,0,0,1-3.52.51c-3.63,0-5.67-1.81-5.67-6.36V40.52h-5.28Z"/></g></g></svg>